<?xml version="1.0" standalone="no"?>
<!DOCTYPE svg PUBLIC "-//W3C//DTD SVG 20010904//EN"
 "http://www.w3.org/TR/2001/REC-SVG-20010904/DTD/svg10.dtd">
<svg version="1.0" xmlns="http://www.w3.org/2000/svg"
 width="1200.000000pt" height="1200.000000pt" viewBox="0 0 1200.000000 1200.000000"
 preserveAspectRatio="xMidYMid meet">

<g transform="translate(0.000000,1200.000000) scale(0.100000,-0.100000)"
fill="#000000" stroke="none">
<path d="M4985 11989 c-157 -25 -406 -74 -552 -110 -2241 -548 -3955 -2326
-4408 -4570 l-25 -127 0 -1023 0 -1024 30 -146 c335 -1656 1383 -3098 2863
-3946 304 -173 724 -361 1067 -477 422 -142 922 -244 1410 -288 189 -16 761
-16 950 0 788 70 1485 264 2170 602 1654 819 2823 2343 3179 4145 279 1413 18
2907 -722 4140 -284 473 -664 942 -1045 1292 -110 100 -115 103 -160 103 -86
0 -171 76 -172 152 0 30 -42 68 -201 186 -244 180 -560 372 -848 517 -533 266
-1049 436 -1676 552 l-150 28 -825 1 c-465 1 -851 -2 -885 -7z m3330 -922
c102 -58 113 -201 21 -272 -109 -83 -266 -6 -266 129 0 129 133 207 245 143z"/>
</g>
</svg>
